<svg version="1.1" id="Layer_1" xmlns="http://www.w3.org/2000/svg" xmlns:xlink="http://www.w3.org/1999/xlink" x="0px" y="0px"
	 width="100%" viewBox="0 0 320 320" enable-background="new 0 0 320 320" xml:space="preserve">
<path fill="#030302" opacity="1.000000" stroke="none" 
	d="
M317.000000,321.000000 
	C214.645233,321.000000 112.290474,321.000000 9.263384,320.570801 
	C8.571187,217.349457 8.550995,114.557350 8.537226,11.765241 
	C8.537119,10.964553 8.624495,10.163854 8.684168,9.136956 
	C111.411530,9.136956 213.954483,9.136956 316.954041,9.136956 
	C316.954041,11.217653 316.953796,13.169791 316.954071,15.121928 
	C316.969360,117.081284 316.984680,219.040649 317.000000,321.000000 
M292.809845,44.300625 
	C292.834534,44.062214 292.859192,43.823799 292.883881,43.585388 
	C292.663757,43.837975 292.443665,44.090561 292.868134,44.721146 
	C297.648956,52.529259 299.065735,60.988235 296.922943,70.319809 
	C304.764496,67.067757 308.309021,61.889206 307.120392,56.290993 
	C305.859741,50.353607 297.981628,44.049698 292.809845,44.300625 
M249.007309,34.275871 
	C249.011154,33.885323 249.014984,33.494770 249.793671,32.878860 
	C264.767120,29.594500 279.688690,29.899807 294.664032,33.176323 
	C271.537811,16.066568 245.263306,17.845970 218.747452,21.054008 
	C218.711502,20.645147 218.675537,20.236284 218.639587,19.827421 
	C225.807343,18.706667 232.975082,17.585911 241.446854,16.261259 
	C238.396866,14.955668 236.551300,13.818901 234.551163,13.368482 
	C225.050323,11.228925 215.759247,11.942942 206.678757,15.641494 
	C193.469604,21.021681 180.445633,27.018471 165.578751,28.489330 
	C168.836594,30.069195 171.786209,31.230930 174.452759,32.856873 
	C178.270538,35.184776 181.588867,35.095177 185.552216,32.785793 
	C190.470657,29.919886 195.881729,27.899405 201.080017,25.513748 
	C201.318024,26.012316 201.556046,26.510885 201.794067,27.009455 
	C196.086884,29.682325 190.379700,32.355198 184.147797,35.273811 
	C202.910461,41.186607 203.185043,41.453178 201.646286,50.567654 
	C205.228897,55.476154 208.366943,59.775570 211.344193,63.854694 
	C239.501892,39.789032 269.732391,29.124371 305.727325,45.679573 
	C305.020691,44.047592 304.183685,41.974838 302.672577,41.174026 
	C298.293335,38.853237 293.799744,36.500984 289.069672,35.136387 
	C275.811127,31.311382 262.391266,32.623600 249.007309,34.275871 
M29.929134,143.730194 
	C22.371399,164.476181 19.822973,185.890717 20.830772,207.890335 
	C21.108130,213.944885 23.584688,218.017944 28.589273,220.765869 
	C36.499821,225.109421 44.865837,226.965332 53.593292,224.915298 
	C55.093960,215.833115 56.017937,206.871658 58.145435,198.205658 
	C60.896214,187.000870 64.608055,176.032013 68.574203,164.986053 
	C69.019585,164.993774 69.464958,165.001495 70.070793,165.783676 
	C66.186867,182.756653 62.234608,199.714462 58.463058,216.712387 
	C57.410961,221.454056 57.159687,225.912323 61.735840,229.734299 
	C65.361252,232.762253 64.001633,235.778229 59.547665,237.325500 
	C53.182205,239.536835 46.999393,242.715790 40.392761,238.008667 
	C39.890049,237.650482 38.787735,238.070953 37.979435,238.215210 
	C33.967556,238.931244 30.882927,237.405411 28.241650,234.465057 
	C27.319786,233.438797 25.986383,232.792282 24.893597,231.907303 
	C22.907551,230.298950 20.960938,228.641922 18.999523,226.302109 
	C18.503807,225.261185 18.008091,224.220261 17.512375,223.179352 
	C17.177073,223.349503 16.841772,223.519653 16.506470,223.689804 
	C16.995737,224.720718 17.485004,225.751617 17.426529,227.227127 
	C18.644112,231.107925 19.660740,235.066025 21.118425,238.854446 
	C24.903961,248.692749 29.655954,257.804688 37.351524,265.469208 
	C46.407768,274.488922 57.103207,280.464966 68.425171,285.946045 
	C92.471207,297.586975 117.808891,304.593872 144.382828,304.661499 
	C167.629974,304.720673 190.917999,302.685883 214.123566,300.788513 
	C233.569321,299.198639 251.921204,293.457764 268.951630,283.596130 
	C283.351593,275.257751 294.671448,264.471039 298.599335,247.734024 
	C300.302094,240.478378 301.531464,233.009827 301.969940,225.578644 
	C303.203827,204.666779 300.421936,184.024323 296.307495,163.585068 
	C294.092529,152.581467 291.098511,141.734680 288.523224,131.095047 
	C286.837677,131.095047 286.476105,131.003479 286.185028,131.108093 
	C262.251068,139.710373 237.245621,142.413818 212.132477,143.657379 
	C171.716919,145.658676 131.613113,142.744827 92.039230,133.810959 
	C69.973503,128.829575 48.290310,123.088165 31.569700,106.356949 
	C31.421862,106.209023 30.960043,106.374878 30.645557,106.406319 
	C14.775292,139.196548 9.725080,193.287979 17.131069,221.194977 
	C15.695209,194.406738 17.736090,168.111893 28.479155,142.977005 
	C28.978172,142.985291 29.477192,142.993561 29.929134,143.730194 
M115.777252,29.934940 
	C115.529655,29.646618 115.282051,29.358297 115.655975,28.697914 
	C127.053230,23.825975 138.908081,22.216928 151.513229,24.197155 
	C151.044662,23.440994 150.938919,23.030130 150.705017,22.935287 
	C149.786697,22.562902 148.835815,22.263327 147.883072,21.984406 
	C136.755692,18.726828 125.717537,19.705391 115.018257,23.506731 
	C77.607628,36.798328 52.588604,63.654358 34.606422,97.961700 
	C33.965103,99.185242 34.563484,102.130569 35.625217,102.995659 
	C41.268627,107.593880 46.849369,112.501373 53.176224,115.986809 
	C76.295860,128.723297 101.650452,134.007538 127.584381,137.030609 
	C134.410522,137.826294 141.242706,138.570129 148.072113,139.337784 
	C146.334564,137.842789 144.415894,137.513367 142.556824,136.977249 
	C129.319977,133.160019 115.900879,129.838531 102.971107,125.165794 
	C98.380363,123.506729 94.102997,119.130592 91.249176,114.930389 
	C86.457611,107.878265 89.911995,99.926979 98.239090,97.885735 
	C101.988991,96.966507 106.133858,97.360458 110.072968,97.598297 
	C113.726990,97.818939 117.345650,98.625122 120.979881,99.173477 
	C121.095291,98.721001 121.210701,98.268517 121.326103,97.816040 
	C114.225937,95.168228 107.125763,92.520424 100.018463,89.317574 
	C100.028267,88.947937 100.038071,88.578300 100.910446,88.118599 
	C106.519165,88.805824 110.827965,86.284012 114.833076,82.714211 
	C119.553635,78.506721 124.386185,74.420486 129.258926,70.388947 
	C145.111984,57.272659 162.585785,48.392712 183.917999,50.049637 
	C187.737732,50.346325 191.515518,51.182976 195.312683,51.770309 
	C193.976501,50.212303 192.405518,49.386478 190.765259,48.735168 
	C179.173889,44.132561 167.592392,45.680851 156.015259,48.298138 
	C156.021927,47.924427 156.028595,47.550716 156.763855,46.922318 
	C171.217911,42.109264 185.400253,42.187576 198.995865,49.937168 
	C201.532318,44.641758 198.823196,42.503052 195.002731,41.107487 
	C177.019241,34.538395 158.991028,34.082596 141.720367,42.822208 
	C130.471664,48.514481 119.972275,55.683796 109.109978,62.145653 
	C105.876732,64.069084 102.551285,65.837524 99.268082,67.676987 
	C99.066475,67.292213 98.864861,66.907448 98.663246,66.522675 
	C120.551384,52.088898 141.121628,34.861305 169.340988,33.336140 
	C165.206635,31.194164 161.154297,29.318127 156.919510,28.052689 
	C143.152710,23.938908 129.609360,25.367756 115.777252,29.934940 
M160.811340,109.795296 
	C154.089890,108.638741 147.380707,107.404259 140.644287,106.342682 
	C128.511993,104.430786 116.389656,102.414024 104.208115,100.877579 
	C99.590164,100.295120 95.012672,101.636421 93.112373,106.627625 
	C91.339600,111.283890 92.872330,115.820770 98.043877,119.091087 
	C103.050140,122.256882 108.496361,125.020386 114.106903,126.884315 
	C134.129852,133.536316 154.896179,136.512360 175.878769,137.683228 
	C197.820496,138.907608 219.793823,140.009354 241.532425,135.029495 
	C255.368546,131.859955 269.003448,128.204498 281.526215,121.288780 
	C287.968994,117.730743 290.420044,111.651955 287.720154,106.294312 
	C251.266907,126.731827 212.308701,128.211639 169.673309,124.023399 
	C151.195511,122.208237 132.872650,118.778366 114.509811,115.888779 
	C112.679413,115.600746 111.061111,113.964767 109.344376,112.954384 
	C109.601494,112.305573 109.858612,111.656754 110.115730,111.007942 
	C112.308937,111.142525 114.556007,111.022934 116.682274,111.473442 
	C119.602150,112.092125 122.421333,113.174637 125.299515,114.003342 
	C155.772217,122.777283 186.987732,124.031746 218.383652,122.844841 
	C241.661560,121.964836 263.801300,116.354073 284.329865,105.116814 
	C286.880768,103.720451 289.494171,101.775368 291.036469,99.406181 
	C292.302002,97.462181 292.017639,94.509232 292.420319,92.003525 
	C290.146545,92.244354 287.580383,91.880547 285.643158,92.817314 
	C259.387543,105.513588 231.477158,111.232117 202.563797,111.826241 
	C188.961197,112.105759 175.321732,110.590843 160.811340,109.795296 
M197.351990,109.794106 
	C206.951218,109.006622 216.577133,108.456856 226.144104,107.382149 
	C246.024078,105.148918 265.026459,99.775970 282.869873,90.592361 
	C286.699219,88.621483 290.716278,86.881683 294.200623,84.407051 
	C298.878448,81.084747 301.689667,76.288231 303.263702,70.400772 
	C302.369873,70.589539 302.027283,70.578552 301.781403,70.727379 
	C300.216705,71.674522 298.681427,72.670212 297.121613,73.625648 
	C278.627747,84.953949 258.747467,91.023415 236.883850,89.119934 
	C228.452698,88.385902 220.050354,87.269562 211.660309,86.138885 
	C208.149887,85.665810 205.655411,86.610809 202.673996,88.787025 
	C196.840057,93.045395 190.532990,96.931725 183.906113,99.766747 
	C172.196808,104.776062 159.578064,104.491348 147.057587,104.053253 
	C147.026825,104.603065 146.996078,105.152885 146.965317,105.702698 
	C163.440704,107.072327 179.916092,108.441956 197.351990,109.794106 
M207.092804,306.721863 
	C202.621597,307.169495 198.150391,307.617126 192.893387,308.143463 
	C198.179108,313.617035 204.087982,315.005463 210.178909,316.054657 
	C225.237350,318.648560 239.471924,314.186249 253.807449,310.870422 
	C257.706238,309.968628 261.367340,308.039124 266.069885,306.220764 
	C262.977844,302.718323 260.902222,299.931427 258.353760,297.679596 
	C257.219391,296.677246 254.813965,295.951294 253.526260,296.462433 
	C238.867233,302.280914 223.492111,304.695404 207.092804,306.721863 
M79.455070,310.194366 
	C99.797852,318.171906 145.201752,317.660645 151.213928,309.217743 
	C125.422813,309.233643 100.732208,303.767151 76.785614,295.306824 
	C71.105247,302.784119 71.574303,305.798798 79.455070,310.194366 
M228.737198,54.449749 
	C215.761536,59.360943 211.445007,70.249771 209.778687,83.028503 
	C218.052902,84.085747 226.860962,85.211197 236.784988,86.479240 
	C229.306808,76.476593 226.222458,66.487427 228.737198,54.449749 
M112.016502,88.531715 
	C120.804024,96.336006 131.679962,98.183289 142.811493,99.698746 
	C136.253983,90.834648 132.869476,81.397034 134.643631,69.804680 
	C126.811768,76.195549 119.615646,82.067642 112.016502,88.531715 
M303.804291,181.851929 
	C304.954163,194.790970 306.104004,207.730011 307.307220,221.269638 
	C311.590546,217.803741 314.650391,214.138840 313.630371,209.100540 
	C310.020782,191.271393 306.146606,173.493332 302.117340,155.753922 
	C301.383362,152.522400 299.450745,149.563141 298.071503,146.478180 
	C297.901276,146.574112 297.731049,146.670044 297.560822,146.765976 
	C299.584351,158.171600 301.607880,169.577240 303.804291,181.851929 
M170.077072,64.783737 
	C170.051651,67.216629 169.386368,69.869843 170.132599,72.037025 
	C171.738800,76.701645 175.318192,80.202881 180.320511,80.155884 
	C183.109009,80.129684 186.753952,78.286995 188.460709,76.068657 
	C191.697983,71.861008 188.905350,64.450073 183.677628,61.153030 
	C178.844955,58.105145 174.105835,59.153511 170.077072,64.783737 
M285.990387,57.288754 
	C286.014862,51.938908 283.345612,48.065380 278.952057,45.471882 
	C275.340973,43.340271 271.507751,43.311253 268.494598,46.654922 
	C265.364319,50.128620 265.304291,54.245102 267.277100,58.287952 
	C269.307892,62.449566 272.572784,65.139015 277.457123,65.016060 
	C281.985657,64.902069 284.933838,62.637470 285.990387,57.288754 
M20.734289,222.950180 
	C21.434477,226.513321 33.308197,236.089157 36.645412,235.728867 
	C37.284077,235.659927 37.894341,235.092697 38.511185,235.104233 
	C39.938023,235.130890 41.769936,234.854996 42.719887,235.607635 
	C49.619877,241.074417 54.703014,234.201813 61.593437,233.980560 
	C58.286671,229.471146 55.793201,227.633835 50.603088,228.635162 
	C40.915707,230.504120 31.918224,227.432007 23.784307,221.881119 
	C22.910303,221.284637 21.245533,218.260757 20.734289,222.950180 
M202.009491,85.436226 
	C204.323395,82.045464 207.269974,78.919289 208.821411,75.209656 
	C212.204483,67.120453 203.957275,56.300171 194.778870,56.535740 
	C201.323608,65.826286 202.656815,75.998032 199.554337,87.472626 
	C200.747513,86.529175 201.130936,86.226006 202.009491,85.436226 
M255.980423,42.601051 
	C253.904892,43.064026 251.725555,43.271542 249.782654,44.060966 
	C247.792633,44.869530 244.044678,44.324738 245.070328,48.284035 
	C245.996399,51.858948 248.913284,52.581692 252.176102,52.095222 
	C256.411743,51.463703 257.912201,48.279903 255.980423,42.601051 
M152.433975,64.057945 
	C153.409332,64.647079 154.513870,65.871758 155.335556,65.704758 
	C157.689117,65.226456 160.543716,64.742432 161.983368,63.155640 
	C162.861206,62.188072 161.490906,59.180836 161.130386,57.089729 
	C158.281677,57.607838 155.312408,57.815659 152.662430,58.845245 
	C151.928619,59.130348 152.143646,61.857624 152.433975,64.057945 
M284.166382,127.904564 
	C284.918182,126.585350 285.669952,125.266136 286.421722,123.946930 
	C285.990936,123.757225 285.560150,123.567520 285.129333,123.377823 
	C277.917664,126.452744 270.705994,129.527664 263.494324,132.602600 
	C263.668915,133.113083 263.843475,133.623581 264.018066,134.134064 
	C270.504791,132.146149 276.991486,130.158249 284.166382,127.904564 
M313.100800,226.488220 
	C313.363770,224.659821 313.626709,222.831421 314.052490,219.871048 
	C309.406769,223.903168 305.092926,226.610672 307.108063,234.173172 
	C309.440979,231.404114 311.199677,229.316605 313.100800,226.488220 
M253.562424,74.881889 
	C254.503174,76.192978 255.323608,77.638275 256.496765,78.690178 
	C256.705414,78.877258 258.919678,77.610779 259.227966,76.688087 
	C259.550629,75.722488 258.762756,73.382347 258.336792,73.351555 
	C256.846924,73.243858 255.303741,73.873589 253.562424,74.881889 
z"/>
<path fill="#F6F6F6" opacity="1.000000" stroke="none" 
	d="
M317.500000,321.000000 
	C316.984680,219.040649 316.969360,117.081284 316.954071,15.121928 
	C316.953796,13.169791 316.954041,11.217653 316.954041,9.136956 
	C213.954483,9.136956 111.411530,9.136956 8.684168,9.136956 
	C8.624495,10.163854 8.537119,10.964553 8.537226,11.765241 
	C8.550995,114.557350 8.571187,217.349457 8.795530,320.570801 
	C6.334705,321.000000 3.669411,321.000000 1.003087,321.000000 
	C1.002058,214.389587 1.002058,107.779175 1.002058,1.084379 
	C107.555473,1.084379 214.111038,1.084379 320.833313,1.084379 
	C320.833313,107.666435 320.833313,214.333221 320.833313,321.000000 
	C319.998871,321.000000 318.999420,321.000000 317.500000,321.000000 
z"/>
<path fill="#3C59A6" opacity="1.000000" stroke="none" 
	d="
M27.726238,142.945145 
	C17.736090,168.111893 15.695209,194.406738 17.131069,221.194977 
	C9.725080,193.287979 14.775292,139.196548 30.645187,106.400284 
	C30.960043,106.374878 31.421862,106.209023 31.569700,106.356949 
	C48.290310,123.088165 69.973503,128.829575 92.039230,133.810959 
	C131.613113,142.744827 171.716919,145.658676 212.132477,143.657379 
	C237.245621,142.413818 262.251068,139.710373 286.185028,131.108093 
	C286.476105,131.003479 286.837677,131.095047 288.523224,131.095047 
	C291.098511,141.734680 294.092529,152.581467 296.307495,163.585068 
	C300.421936,184.024323 303.203827,204.666779 301.969940,225.578644 
	C301.531464,233.009827 300.302094,240.478378 298.599335,247.734024 
	C294.671448,264.471039 283.351593,275.257751 268.951630,283.596130 
	C251.921204,293.457764 233.569321,299.198639 214.123566,300.788513 
	C190.917999,302.685883 167.629974,304.720673 144.382828,304.661499 
	C117.808891,304.593872 92.471207,297.586975 68.425171,285.946045 
	C57.103207,280.464966 46.407768,274.488922 37.351524,265.469208 
	C29.655954,257.804688 24.903961,248.692749 21.118425,238.854446 
	C19.660740,235.066025 18.644112,231.107925 17.956135,227.061401 
	C18.656448,226.932159 18.827156,226.968674 18.997864,227.005203 
	C20.960938,228.641922 22.907551,230.298950 24.893597,231.907303 
	C25.986383,232.792282 27.319786,233.438797 28.241650,234.465057 
	C30.882927,237.405411 33.967556,238.931244 37.979435,238.215210 
	C38.787735,238.070953 39.890049,237.650482 40.392761,238.008667 
	C46.999393,242.715790 53.182205,239.536835 59.547665,237.325500 
	C64.001633,235.778229 65.361252,232.762253 61.735840,229.734299 
	C57.159687,225.912323 57.410961,221.454056 58.463058,216.712387 
	C62.234608,199.714462 66.186867,182.756653 69.956657,165.029724 
	C64.070496,148.085266 54.014549,135.862701 37.595718,129.586029 
	C36.475067,129.157623 35.182629,129.178589 33.776268,129.212891 
	C33.542706,129.627792 33.502956,129.820358 33.270859,130.216080 
	C32.366241,131.508972 31.653967,132.598694 30.884869,134.086487 
	C30.539381,135.497650 30.250717,136.510712 29.975082,137.511261 
	C29.988113,137.498734 29.982372,137.463028 29.766956,137.748749 
	C29.044901,139.355072 28.538263,140.675690 27.912834,142.219849 
	C27.771442,142.610626 27.748840,142.777878 27.726238,142.945145 
z"/>
<path fill="#54873E" opacity="1.000000" stroke="none" 
	d="
M156.021896,48.859032 
	C167.592392,45.680851 179.173889,44.132561 190.765259,48.735168 
	C192.405518,49.386478 193.976501,50.212303 195.312683,51.770309 
	C191.515518,51.182976 187.737732,50.346325 183.917999,50.049637 
	C162.585785,48.392712 145.111984,57.272659 129.258926,70.388947 
	C124.386185,74.420486 119.553635,78.506721 114.833076,82.714211 
	C110.827965,86.284012 106.519165,88.805824 100.098816,88.083626 
	C94.466461,87.838326 85.196602,93.526138 83.604347,97.458954 
	C87.016212,95.815506 90.612274,94.048050 94.240799,92.349945 
	C96.139648,91.461304 98.095490,90.694466 100.025589,89.872620 
	C107.125763,92.520424 114.225937,95.168228 121.326103,97.816040 
	C121.210701,98.268517 121.095291,98.721001 120.979881,99.173477 
	C117.345650,98.625122 113.726990,97.818939 110.072968,97.598297 
	C106.133858,97.360458 101.988991,96.966507 98.239090,97.885735 
	C89.911995,99.926979 86.457611,107.878265 91.249176,114.930389 
	C94.102997,119.130592 98.380363,123.506729 102.971107,125.165794 
	C115.900879,129.838531 129.319977,133.160019 142.556824,136.977249 
	C144.415894,137.513367 146.334564,137.842789 148.072113,139.337784 
	C141.242706,138.570129 134.410522,137.826294 127.584381,137.030609 
	C101.650452,134.007538 76.295860,128.723297 53.176224,115.986809 
	C46.849369,112.501373 41.268627,107.593880 35.625217,102.995659 
	C34.563484,102.130569 33.965103,99.185242 34.606422,97.961700 
	C52.588604,63.654358 77.607628,36.798328 115.018257,23.506731 
	C125.717537,19.705391 136.755692,18.726828 147.883072,21.984406 
	C148.835815,22.263327 149.786697,22.562902 150.705017,22.935287 
	C150.938919,23.030130 151.044662,23.440994 151.513229,24.197155 
	C138.908081,22.216928 127.053230,23.825975 114.984520,28.909916 
	C108.042252,32.025394 101.715340,34.846909 97.437729,40.660297 
	C103.719536,37.179947 110.001343,33.699596 116.283150,30.219246 
	C129.609360,25.367756 143.152710,23.938908 156.919510,28.052689 
	C161.154297,29.318127 165.206635,31.194164 169.340988,33.336140 
	C141.121628,34.861305 120.551384,52.088898 98.663246,66.522675 
	C98.864861,66.907448 99.066475,67.292213 99.268082,67.676987 
	C102.551285,65.837524 105.876732,64.069084 109.109978,62.145653 
	C119.972275,55.683796 130.471664,48.514481 141.720367,42.822208 
	C158.991028,34.082596 177.019241,34.538395 195.002731,41.107487 
	C198.823196,42.503052 201.532318,44.641758 198.995865,49.937168 
	C185.400253,42.187576 171.217911,42.109264 156.034302,47.058098 
	C150.668640,49.142300 146.032532,51.090725 141.396439,53.039150 
	C141.619583,53.579334 141.842728,54.119522 142.065887,54.659706 
	C146.717880,52.726147 151.369888,50.792591 156.021896,48.859032 
M114.941635,70.786697 
	C109.241478,72.924332 103.552757,75.093193 97.836884,77.187958 
	C94.378601,78.455368 90.905815,79.634010 90.417786,83.497116 
	C94.325706,81.844666 97.948936,80.482574 101.419449,78.804581 
	C106.410568,76.391380 111.290527,73.748268 116.584061,70.940338 
	C116.266594,70.832687 115.949135,70.725037 114.941635,70.786697 
M79.061584,108.412971 
	C79.299706,109.494148 79.537827,110.575325 79.775948,111.656494 
	C79.992996,111.592941 80.210037,111.529388 80.427078,111.465836 
	C81.136444,107.400391 81.845802,103.334946 82.555161,99.269493 
	C82.190689,99.169838 81.826210,99.070175 81.461739,98.970512 
	C80.666580,101.846603 79.871429,104.722687 79.061584,108.412971 
z"/>
<path fill="#A25A3A" opacity="1.000000" stroke="none" 
	d="
M161.255157,109.842186 
	C175.321732,110.590843 188.961197,112.105759 202.563797,111.826241 
	C231.477158,111.232117 259.387543,105.513588 285.643158,92.817314 
	C287.580383,91.880547 290.146545,92.244354 292.420288,92.003525 
	C292.017639,94.509232 292.302002,97.462181 291.036469,99.406181 
	C289.494171,101.775368 286.880768,103.720451 284.329865,105.116814 
	C263.801300,116.354073 241.661560,121.964836 218.383652,122.844841 
	C186.987732,124.031746 155.772217,122.777283 125.299515,114.003342 
	C122.421333,113.174637 119.602150,112.092125 116.682274,111.473442 
	C114.556007,111.022934 112.308937,111.142525 110.115730,111.007942 
	C109.858612,111.656754 109.601494,112.305573 109.344376,112.954384 
	C111.061111,113.964767 112.679413,115.600746 114.509811,115.888779 
	C132.872650,118.778366 151.195511,122.208237 169.673309,124.023399 
	C212.308701,128.211639 251.266907,126.731827 287.720154,106.294312 
	C290.420044,111.651955 287.968994,117.730743 281.526215,121.288780 
	C269.003448,128.204498 255.368546,131.859955 241.532425,135.029495 
	C219.793823,140.009354 197.820496,138.907608 175.878769,137.683228 
	C154.896179,136.512360 134.129852,133.536316 114.106903,126.884315 
	C108.496361,125.020386 103.050140,122.256882 98.043877,119.091087 
	C92.872330,115.820770 91.339600,111.283890 93.112373,106.627625 
	C95.012672,101.636421 99.590164,100.295120 104.208115,100.877579 
	C116.389656,102.414024 128.511993,104.430786 140.644287,106.342682 
	C147.380707,107.404259 154.089890,108.638741 161.255157,109.842186 
z"/>
<path fill="#3B58A6" opacity="1.000000" stroke="none" 
	d="
M29.982372,137.463028 
	C29.982372,137.463028 29.988113,137.498734 30.390102,137.689178 
	C31.539185,136.822510 32.286278,135.765427 33.033371,134.708328 
	C32.336140,134.368362 31.638912,134.028397 30.941689,133.688416 
	C31.653967,132.598694 32.366241,131.508972 33.648087,130.484238 
	C34.504108,130.434540 34.790554,130.319824 35.388634,130.311066 
	C37.568439,131.466324 39.451199,132.490601 41.302452,133.568954 
	C53.873974,140.891968 62.645592,151.440277 67.906082,164.961578 
	C64.608055,176.032013 60.896214,187.000870 58.145435,198.205658 
	C56.017937,206.871658 55.093960,215.833115 53.593292,224.915298 
	C44.865837,226.965332 36.499821,225.109421 28.589273,220.765869 
	C23.584688,218.017944 21.108130,213.944885 20.830772,207.890335 
	C19.822973,185.890717 22.371399,164.476181 30.077871,143.141571 
	C30.251736,142.383438 30.276861,142.213959 30.517090,141.710480 
	C30.482254,140.071991 30.232313,138.767517 29.982372,137.463028 
z"/>
<path fill="#53863D" opacity="1.000000" stroke="none" 
	d="
M249.022415,34.861610 
	C262.391266,32.623600 275.811127,31.311382 289.069672,35.136387 
	C293.799744,36.500984 298.293335,38.853237 302.672577,41.174026 
	C304.183685,41.974838 305.020691,44.047592 305.727325,45.679573 
	C269.732391,29.124371 239.501892,39.789032 211.344193,63.854694 
	C208.366943,59.775570 205.228897,55.476154 201.646286,50.567654 
	C203.185043,41.453178 202.910461,41.186607 184.147797,35.273811 
	C190.379700,32.355198 196.086884,29.682325 201.794067,27.009455 
	C201.556046,26.510885 201.318024,26.012316 201.080017,25.513748 
	C195.881729,27.899405 190.470657,29.919886 185.552216,32.785793 
	C181.588867,35.095177 178.270538,35.184776 174.452759,32.856873 
	C171.786209,31.230930 168.836594,30.069195 165.578751,28.489330 
	C180.445633,27.018471 193.469604,21.021681 206.678757,15.641494 
	C215.759247,11.942942 225.050323,11.228925 234.551163,13.368482 
	C236.551300,13.818901 238.396866,14.955668 241.446854,16.261259 
	C232.975082,17.585911 225.807343,18.706667 218.639587,19.827421 
	C218.675537,20.236284 218.711502,20.645147 218.747452,21.054008 
	C245.263306,17.845970 271.537811,16.066568 294.664032,33.176323 
	C279.688690,29.899807 264.767120,29.594500 249.007980,32.966904 
	C237.378250,35.617947 226.586105,38.304874 216.665314,46.054363 
	C228.185822,42.069263 238.604126,38.465435 249.022415,34.861610 
z"/>
<path fill="#54863D" opacity="1.000000" stroke="none" 
	d="
M196.871735,109.802841 
	C179.916092,108.441956 163.440704,107.072327 146.965317,105.702698 
	C146.996078,105.152885 147.026825,104.603065 147.057587,104.053253 
	C159.578064,104.491348 172.196808,104.776062 183.906113,99.766747 
	C190.532990,96.931725 196.840057,93.045395 202.673996,88.787025 
	C205.655411,86.610809 208.149887,85.665810 211.660309,86.138885 
	C220.050354,87.269562 228.452698,88.385902 236.883850,89.119934 
	C258.747467,91.023415 278.627747,84.953949 297.121613,73.625648 
	C298.681427,72.670212 300.216705,71.674522 301.781403,70.727379 
	C302.027283,70.578552 302.369873,70.589539 303.263702,70.400772 
	C301.689667,76.288231 298.878448,81.084747 294.200623,84.407051 
	C290.716278,86.881683 286.699219,88.621483 282.869873,90.592361 
	C265.026459,99.775970 246.024078,105.148918 226.144104,107.382149 
	C216.577133,108.456856 206.951218,109.006622 196.871735,109.802841 
z"/>
<path fill="#54863D" opacity="1.000000" stroke="none" 
	d="
M207.533066,306.622101 
	C223.492111,304.695404 238.867233,302.280914 253.526260,296.462433 
	C254.813965,295.951294 257.219391,296.677246 258.353760,297.679596 
	C260.902222,299.931427 262.977844,302.718323 266.069885,306.220764 
	C261.367340,308.039124 257.706238,309.968628 253.807449,310.870422 
	C239.471924,314.186249 225.237350,318.648560 210.178909,316.054657 
	C204.087982,315.005463 198.179108,313.617035 192.893387,308.143463 
	C198.150391,307.617126 202.621597,307.169495 207.533066,306.622101 
z"/>
<path fill="#54863D" opacity="1.000000" stroke="none" 
	d="
M79.103149,310.048950 
	C71.574303,305.798798 71.105247,302.784119 76.785614,295.306824 
	C100.732208,303.767151 125.422813,309.233643 151.213928,309.217743 
	C145.201752,317.660645 99.797852,318.171906 79.103149,310.048950 
z"/>
<path fill="#F7F7F7" opacity="1.000000" stroke="none" 
	d="
M228.782730,54.828785 
	C226.222458,66.487427 229.306808,76.476593 236.784988,86.479240 
	C226.860962,85.211197 218.052902,84.085747 209.778687,83.028503 
	C211.445007,70.249771 215.761536,59.360943 228.782730,54.828785 
z"/>
<path fill="#F8F8F8" opacity="1.000000" stroke="none" 
	d="
M112.218018,88.235718 
	C119.615646,82.067642 126.811768,76.195549 134.643631,69.804680 
	C132.869476,81.397034 136.253983,90.834648 142.811493,99.698746 
	C131.679962,98.183289 120.804024,96.336006 112.218018,88.235718 
z"/>
<path fill="#39549E" opacity="1.000000" stroke="none" 
	d="
M303.717834,181.417389 
	C301.607880,169.577240 299.584351,158.171600 297.560822,146.765976 
	C297.731049,146.670044 297.901276,146.574112 298.071503,146.478180 
	C299.450745,149.563141 301.383362,152.522400 302.117340,155.753922 
	C306.146606,173.493332 310.020782,191.271393 313.630371,209.100540 
	C314.650391,214.138840 311.590546,217.803741 307.307220,221.269638 
	C306.104004,207.730011 304.954163,194.790970 303.717834,181.417389 
z"/>
<path fill="#F8F8F8" opacity="1.000000" stroke="none" 
	d="
M170.233353,64.438141 
	C174.105835,59.153511 178.844955,58.105145 183.677628,61.153030 
	C188.905350,64.450073 191.697983,71.861008 188.460709,76.068657 
	C186.753952,78.286995 183.109009,80.129684 180.320511,80.155884 
	C175.318192,80.202881 171.738800,76.701645 170.132599,72.037025 
	C169.386368,69.869843 170.051651,67.216629 170.233353,64.438141 
z"/>
<path fill="#F7F7F7" opacity="1.000000" stroke="none" 
	d="
M285.960327,57.690712 
	C284.933838,62.637470 281.985657,64.902069 277.457123,65.016060 
	C272.572784,65.139015 269.307892,62.449566 267.277100,58.287952 
	C265.304291,54.245102 265.364319,50.128620 268.494598,46.654922 
	C271.507751,43.311253 275.340973,43.340271 278.952057,45.471882 
	C283.345612,48.065380 286.014862,51.938908 285.960327,57.690712 
z"/>
<path fill="#52833C" opacity="1.000000" stroke="none" 
	d="
M20.739117,222.602554 
	C21.245533,218.260757 22.910303,221.284637 23.784307,221.881119 
	C31.918224,227.432007 40.915707,230.504120 50.603088,228.635162 
	C55.793201,227.633835 58.286671,229.471146 61.593437,233.980560 
	C54.703014,234.201813 49.619877,241.074417 42.719887,235.607635 
	C41.769936,234.854996 39.938023,235.130890 38.511185,235.104233 
	C37.894341,235.092697 37.284077,235.659927 36.645412,235.728867 
	C33.308197,236.089157 21.434477,226.513321 20.739117,222.602554 
z"/>
<path fill="#F1F1F1" opacity="1.000000" stroke="none" 
	d="
M201.761932,85.679527 
	C201.130936,86.226006 200.747513,86.529175 199.554337,87.472626 
	C202.656815,75.998032 201.323608,65.826286 194.778870,56.535740 
	C203.957275,56.300171 212.204483,67.120453 208.821411,75.209656 
	C207.269974,78.919289 204.323395,82.045464 201.761932,85.679527 
z"/>
<path fill="#F4F4F4" opacity="1.000000" stroke="none" 
	d="
M292.151276,44.313011 
	C297.981628,44.049698 305.859741,50.353607 307.120392,56.290993 
	C308.309021,61.889206 304.764496,67.067757 296.922943,70.319809 
	C299.065735,60.988235 297.648956,52.529259 292.550781,44.493927 
	C292.233459,44.266712 292.151276,44.313011 292.151276,44.313011 
z"/>
<path fill="#06090E" opacity="1.000000" stroke="none" 
	d="
M68.240143,164.973816 
	C62.645592,151.440277 53.873974,140.891968 41.302452,133.568954 
	C39.451199,132.490601 37.568439,131.466324 35.263901,130.056793 
	C34.541725,129.461243 34.255905,129.225906 33.970081,128.990570 
	C35.182629,129.178589 36.475067,129.157623 37.595718,129.586029 
	C54.014549,135.862701 64.070496,148.085266 69.876434,164.642502 
	C69.464958,165.001495 69.019585,164.993774 68.240143,164.973816 
z"/>
<path fill="#F2F2F2" opacity="1.000000" stroke="none" 
	d="
M256.279419,42.796268 
	C257.912201,48.279903 256.411743,51.463703 252.176102,52.095222 
	C248.913284,52.581692 245.996399,51.858948 245.070328,48.284035 
	C244.044678,44.324738 247.792633,44.869530 249.782654,44.060966 
	C251.725555,43.271542 253.904892,43.064026 256.279419,42.796268 
z"/>
<path fill="#F2F2F2" opacity="1.000000" stroke="none" 
	d="
M152.178650,63.761177 
	C152.143646,61.857624 151.928619,59.130348 152.662430,58.845245 
	C155.312408,57.815659 158.281677,57.607838 161.130386,57.089729 
	C161.490906,59.180836 162.861206,62.188072 161.983368,63.155640 
	C160.543716,64.742432 157.689117,65.226456 155.335556,65.704758 
	C154.513870,65.871758 153.409332,64.647079 152.178650,63.761177 
z"/>
<path fill="#0D1509" opacity="1.000000" stroke="none" 
	d="
M249.014862,34.568741 
	C238.604126,38.465435 228.185822,42.069263 216.665314,46.054363 
	C226.586105,38.304874 237.378250,35.617947 248.620544,33.079582 
	C249.014984,33.494770 249.011154,33.885323 249.014862,34.568741 
z"/>
<path fill="#4D7C39" opacity="1.000000" stroke="none" 
	d="
M283.822296,128.037445 
	C276.991486,130.158249 270.504791,132.146149 264.018066,134.134064 
	C263.843475,133.623581 263.668915,133.113083 263.494324,132.602600 
	C270.705994,129.527664 277.917664,126.452744 285.129333,123.377823 
	C285.560150,123.567520 285.990936,123.757225 286.421722,123.946930 
	C285.669952,125.266136 284.918182,126.585350 283.822296,128.037445 
z"/>
<path fill="#4E7E39" opacity="1.000000" stroke="none" 
	d="
M313.029602,226.858643 
	C311.199677,229.316605 309.440979,231.404114 307.108063,234.173172 
	C305.092926,226.610672 309.406769,223.903168 314.052490,219.871048 
	C313.626709,222.831421 313.363770,224.659821 313.029602,226.858643 
z"/>
<path fill="#111C0D" opacity="1.000000" stroke="none" 
	d="
M100.022026,89.595093 
	C98.095490,90.694466 96.139648,91.461304 94.240799,92.349945 
	C90.612274,94.048050 87.016212,95.815506 83.604347,97.458954 
	C85.196602,93.526138 94.466461,87.838326 99.667526,88.128662 
	C100.038071,88.578300 100.028267,88.947937 100.022026,89.595093 
z"/>
<path fill="#0F190B" opacity="1.000000" stroke="none" 
	d="
M116.030197,30.077093 
	C110.001343,33.699596 103.719536,37.179947 97.437729,40.660297 
	C101.715340,34.846909 108.042252,32.025394 114.673752,29.095945 
	C115.282051,29.358297 115.529655,29.646618 116.030197,30.077093 
z"/>
<path fill="#DFDFDF" opacity="1.000000" stroke="none" 
	d="
M253.671616,74.552544 
	C255.303741,73.873589 256.846924,73.243858 258.336792,73.351555 
	C258.762756,73.382347 259.550629,75.722488 259.227966,76.688087 
	C258.919678,77.610779 256.705414,78.877258 256.496765,78.690178 
	C255.323608,77.638275 254.503174,76.192978 253.671616,74.552544 
z"/>
<path fill="#0E170B" opacity="1.000000" stroke="none" 
	d="
M156.018585,48.578583 
	C151.369888,50.792591 146.717880,52.726147 142.065887,54.659706 
	C141.842728,54.119522 141.619583,53.579334 141.396439,53.039150 
	C146.032532,51.090725 150.668640,49.142300 155.669998,47.185440 
	C156.028595,47.550716 156.021927,47.924427 156.018585,48.578583 
z"/>
<path fill="#06090E" opacity="1.000000" stroke="none" 
	d="
M18.998693,226.653656 
	C18.827156,226.968674 18.656448,226.932159 18.230007,226.839096 
	C17.485004,225.751617 16.995737,224.720718 16.506470,223.689804 
	C16.841772,223.519653 17.177073,223.349503 17.512375,223.179352 
	C18.008091,224.220261 18.503807,225.261185 18.998693,226.653656 
z"/>
<path fill="#06090E" opacity="1.000000" stroke="none" 
	d="
M30.301985,142.044495 
	C30.276861,142.213959 30.251736,142.383438 30.101410,142.777374 
	C29.477192,142.993561 28.978172,142.985291 28.102695,142.961075 
	C27.748840,142.777878 27.771442,142.610626 28.290398,142.224838 
	C29.291828,142.019028 29.796907,142.031754 30.301985,142.044495 
z"/>
<path fill="#F4F4F4" opacity="1.000000" stroke="none" 
	d="
M292.228516,44.304932 
	C292.443665,44.090561 292.663757,43.837975 292.883850,43.585388 
	C292.859192,43.823799 292.834534,44.062214 292.480560,44.306816 
	C292.151276,44.313011 292.233459,44.266712 292.228516,44.304932 
z"/>
<path fill="#030302" opacity="1.000000" stroke="none" 
	d="
M30.884865,134.086487 
	C31.638912,134.028397 32.336140,134.368362 33.033371,134.708328 
	C32.286278,135.765427 31.539185,136.822510 30.377071,137.701691 
	C30.250717,136.510712 30.539381,135.497650 30.884865,134.086487 
z"/>
<path fill="#030302" opacity="1.000000" stroke="none" 
	d="
M30.517090,141.710480 
	C29.796907,142.031754 29.291828,142.019028 28.409187,142.001282 
	C28.538263,140.675690 29.044901,139.355072 29.766956,137.748749 
	C30.232313,138.767517 30.482254,140.071991 30.517090,141.710480 
z"/>
<path fill="#030302" opacity="1.000000" stroke="none" 
	d="
M33.776268,129.212891 
	C34.255905,129.225906 34.541725,129.461243 34.952274,129.950836 
	C34.790554,130.319824 34.504108,130.434540 33.840431,130.281082 
	C33.502956,129.820358 33.542706,129.627792 33.776268,129.212891 
z"/>
<path fill="#0E160A" opacity="1.000000" stroke="none" 
	d="
M116.217941,71.203293 
	C111.290527,73.748268 106.410568,76.391380 101.419449,78.804581 
	C97.948936,80.482574 94.325706,81.844666 90.417786,83.497116 
	C90.905815,79.634010 94.378601,78.455368 97.836884,77.187958 
	C103.552757,75.093193 109.241478,72.924332 115.431488,70.850250 
	C115.921349,70.913795 116.217941,71.203293 116.217941,71.203293 
z"/>
<path fill="#111C0D" opacity="1.000000" stroke="none" 
	d="
M79.068932,108.005875 
	C79.871429,104.722687 80.666580,101.846603 81.461739,98.970512 
	C81.826210,99.070175 82.190689,99.169838 82.555161,99.269493 
	C81.845802,103.334946 81.136444,107.400391 80.427078,111.465836 
	C80.210037,111.529388 79.992996,111.592941 79.775948,111.656494 
	C79.537827,110.575325 79.299706,109.494148 79.068932,108.005875 
z"/>
<path fill="#0E160A" opacity="1.000000" stroke="none" 
	d="
M115.776505,70.765594 
	C115.949135,70.725037 116.266594,70.832687 116.401001,71.071815 
	C116.217941,71.203293 115.921349,70.913795 115.776505,70.765594 
z"/>
</svg>